<?xml version="1.0" encoding="UTF-8" standalone="no"?>
<!DOCTYPE svg PUBLIC "-//W3C//DTD SVG 1.1//EN" "http://www.w3.org/Graphics/SVG/1.1/DTD/svg11.dtd">
<svg version="1.1" xmlns="http://www.w3.org/2000/svg" xmlns:xlink="http://www.w3.org/1999/xlink" preserveAspectRatio="xMidYMid meet" viewBox="115.77352637021721 100.65460186142711 257.9314736297828 272.62461220268864" width="253.93" height="268.62"><defs><path d="M262.09 102.1L267.51 102.65L272.86 103.41L278.14 104.39L283.35 105.56L288.47 106.94L293.52 108.51L298.48 110.27L303.35 112.22L308.12 114.35L312.79 116.66L317.36 119.14L321.81 121.79L326.16 124.61L330.39 127.58L334.49 130.72L338.47 134L342.32 137.44L346.04 141.01L349.62 144.73L353.05 148.58L355.78 151.88L352.75 148.75L349.38 145.53L345.9 142.44L342.29 139.48L338.57 136.66L334.74 133.98L330.81 131.44L326.77 129.06L322.63 126.82L318.4 124.74L314.08 122.82L309.67 121.07L305.18 119.48L300.61 118.07L295.96 116.83L291.25 115.77L286.47 114.9L281.62 114.21L276.72 113.71L271.75 113.41L266.74 113.31L261.73 113.41L256.77 113.71L251.87 114.21L247.02 114.9L242.24 115.77L237.52 116.83L232.88 118.07L228.31 119.48L223.82 121.07L219.41 122.82L215.09 124.74L210.86 126.82L206.72 129.06L202.68 131.44L198.75 133.98L194.92 136.66L191.2 139.48L187.59 142.44L184.1 145.53L180.74 148.75L177.5 152.1L174.39 155.57L171.41 159.15L168.57 162.85L165.88 166.66L163.33 170.57L160.92 174.59L158.68 178.7L156.59 182.91L154.66 187.2L152.89 191.59L151.3 196.05L149.87 200.59L148.63 205.21L147.56 209.9L146.68 214.66L145.99 219.47L145.49 224.35L145.19 229.28L145.09 234.26L145.19 239.25L145.49 244.18L145.99 249.05L146.68 253.87L147.56 258.63L148.63 263.32L149.87 267.93L151.3 272.48L152.89 276.94L154.66 281.32L156.59 285.62L158.68 289.83L160.92 293.94L163.33 297.96L165.88 301.87L168.57 305.68L171.41 309.37L174.39 312.96L177.5 316.43L180.74 319.77L184.1 322.99L187.59 326.08L191.2 329.04L194.92 331.87L198.75 334.55L202.68 337.08L206.72 339.47L210.86 341.71L215.09 343.79L219.41 345.7L223.82 347.46L228.31 349.04L232.88 350.46L237.52 351.7L242.24 352.76L247.02 353.63L251.87 354.32L256.77 354.81L261.73 355.11L266.74 355.22L271.75 355.11L276.72 354.81L281.62 354.32L286.47 353.63L291.25 352.76L295.96 351.7L300.61 350.46L305.18 349.04L309.67 347.46L314.08 345.7L318.4 343.79L322.63 341.71L326.77 339.47L330.81 337.08L334.74 334.55L338.57 331.87L342.29 329.04L345.9 326.08L349.38 322.99L352.75 319.77L355.99 316.43L359.1 312.96L362.07 309.37L364.91 305.68L367.61 301.87L370.16 297.96L370.71 297.05L370.4 297.67L367.91 302.24L365.26 306.69L362.45 311.04L359.47 315.27L356.34 319.38L353.05 323.36L349.62 327.21L346.04 330.92L342.32 334.5L338.47 337.93L334.49 341.22L330.39 344.35L326.16 347.33L321.81 350.14L317.36 352.8L312.79 355.28L308.12 357.59L303.35 359.72L298.48 361.67L293.52 363.43L288.47 365L283.35 366.37L278.14 367.55L272.86 368.52L267.51 369.28L262.09 369.83L256.62 370.17L251.09 370.28L245.55 370.17L240.08 369.83L234.66 369.28L229.31 368.52L224.03 367.55L218.83 366.37L213.7 365L208.65 363.43L203.69 361.67L198.83 359.72L194.05 357.59L189.38 355.28L184.82 352.8L180.36 350.14L176.01 347.33L171.78 344.35L167.68 341.22L163.7 337.93L159.85 334.5L156.13 330.92L152.55 327.21L149.12 323.36L145.84 319.38L142.7 315.27L139.73 311.04L136.91 306.69L134.26 302.24L131.77 297.67L129.47 293L127.34 288.23L125.39 283.36L123.63 278.4L122.06 273.36L120.68 268.23L119.5 263.02L118.53 257.74L117.77 252.39L117.22 246.98L116.89 241.5L116.77 235.97L116.89 230.43L117.22 224.96L117.77 219.54L118.53 214.19L119.5 208.91L120.68 203.71L122.06 198.58L123.63 193.53L125.39 188.57L127.34 183.71L129.47 178.94L131.77 174.26L134.26 169.7L136.91 165.24L139.73 160.89L142.7 156.67L145.84 152.56L149.12 148.58L152.55 144.73L156.13 141.01L159.85 137.44L163.7 134L167.68 130.72L171.78 127.58L176.01 124.61L180.36 121.79L184.82 119.14L189.38 116.66L194.05 114.35L198.83 112.22L203.69 110.27L208.65 108.51L213.7 106.94L218.83 105.56L224.03 104.39L229.31 103.41L234.66 102.65L240.08 102.1L245.55 101.77L251.09 101.65L256.62 101.77L262.09 102.1Z" id="ajHP9i6nV"></path><linearGradient id="logoGradient" gradientUnits="userSpaceOnUse" x1="174.11" y1="146.84" x2="327.44" y2="343.61"><stop style="stop-color: #ffc2cb;stop-opacity: 1" offset="0%"></stop><stop style="stop-color: #c4c5ff;stop-opacity: 1" offset="100%"></stop></linearGradient></defs><g><g><use xlink:href="#ajHP9i6nV" opacity="1" fill="url(#logoGradient)"></use></g></g></svg>